<?xml version="1.0" encoding="UTF-8"?>
<svg id="Capa_1" xmlns="http://www.w3.org/2000/svg" version="1.1" viewBox="0 0 128 128">
  <!-- Generator: Adobe Illustrator 29.5.1, SVG Export Plug-In . SVG Version: 2.1.0 Build 141)  -->
  <defs>
    <style>
      .st0 {
        fill: #1d1d1b;
      }

      .st1 {
        fill: #fff;
      }

      .st2 {
        display: none;
      }
    </style>
  </defs>
  <g id="Capa_11" data-name="Capa_1" class="st2">
    <circle class="st0" cx="63.6" cy="64" r="62.2"/>
    <path class="st1" d="M48.3,72.2v40.1h21.9v-40.1h16.3l3.4-18.4h-19.7v-6.5c0-9.8,3.8-13.5,13.7-13.5s5.5,0,7,.2v-16.7c-2.7-.7-9.3-1.5-13.1-1.5-20.2,0-29.5,9.5-29.5,30.1v7.9h-12.4v18.4h12.4Z"/>
  </g>
  <g id="Capa_2" class="st2">
    <circle class="st0" cx="63.6" cy="64" r="62.2"/>
    <path class="st1" d="M63.6,43.2c-11.5,0-20.8,9.3-20.8,20.8s9.3,20.8,20.8,20.8,20.8-9.3,20.8-20.8-9.3-20.8-20.8-20.8ZM63.6,77.5c-7.4,0-13.5-6.1-13.5-13.5s6.1-13.5,13.5-13.5,13.5,6.1,13.5,13.5-6.1,13.5-13.5,13.5h0ZM90.1,42.4c0,2.7-2.2,4.8-4.8,4.8s-4.8-2.2-4.8-4.8,2.2-4.8,4.8-4.8,4.8,2.2,4.8,4.8ZM103.8,47.3c-.3-6.5-1.8-12.2-6.5-17-4.7-4.7-10.5-6.2-17-6.5-6.7-.4-26.7-.4-33.4,0-6.5.3-12.2,1.8-17,6.5s-6.2,10.5-6.5,17c-.4,6.7-.4,26.7,0,33.4.3,6.5,1.8,12.2,6.5,17,4.8,4.7,10.5,6.2,17,6.5,6.7.4,26.7.4,33.4,0,6.5-.3,12.2-1.8,17-6.5,4.7-4.7,6.2-10.5,6.5-17,.4-6.7.4-26.7,0-33.4h0ZM95.2,87.9c-1.4,3.5-4.1,6.3-7.7,7.7-5.3,2.1-18,1.6-23.9,1.6s-18.6.5-23.9-1.6c-3.5-1.4-6.3-4.1-7.7-7.7-2.1-5.3-1.6-18-1.6-23.9s-.5-18.6,1.6-23.9c1.4-3.5,4.1-6.3,7.7-7.7,5.3-2.1,18-1.6,23.9-1.6s18.6-.5,23.9,1.6c3.5,1.4,6.3,4.1,7.7,7.7,2.1,5.3,1.6,18,1.6,23.9s.5,18.6-1.6,23.9Z"/>
  </g>
  <g id="Capa_3">
    <circle class="st0" cx="63.6" cy="64" r="62.2"/>
    <path class="st1" d="M64,43.6c-11.3,0-20.4,9.1-20.4,20.4s9.1,20.4,20.4,20.4,20.4-9.1,20.4-20.4-9.1-20.4-20.4-20.4ZM64,77.3c-7.3,0-13.3-6-13.3-13.3s6-13.3,13.3-13.3,13.3,6,13.3,13.3-6,13.3-13.3,13.3h0ZM90,42.8c0,2.6-2.1,4.8-4.8,4.8s-4.8-2.1-4.8-4.8,2.1-4.8,4.8-4.8,4.8,2.1,4.8,4.8ZM103.5,47.6c-.3-6.4-1.8-12-6.4-16.7-4.7-4.7-10.3-6.1-16.7-6.4-6.6-.4-26.3-.4-32.8,0-6.4.3-12,1.8-16.7,6.4s-6.1,10.3-6.4,16.7c-.4,6.6-.4,26.3,0,32.8.3,6.4,1.8,12,6.4,16.7,4.7,4.7,10.3,6.1,16.7,6.4,6.6.4,26.3.4,32.8,0,6.4-.3,12-1.8,16.7-6.4,4.7-4.7,6.1-10.3,6.4-16.7.4-6.6.4-26.3,0-32.8h0ZM95,87.5c-1.4,3.5-4.1,6.2-7.6,7.6-5.2,2.1-17.7,1.6-23.5,1.6s-18.2.5-23.5-1.6c-3.5-1.4-6.2-4.1-7.6-7.6-2.1-5.2-1.6-17.7-1.6-23.5s-.5-18.2,1.6-23.5c1.4-3.5,4.1-6.2,7.6-7.6,5.2-2.1,17.7-1.6,23.5-1.6s18.2-.5,23.5,1.6c3.5,1.4,6.2,4.1,7.6,7.6,2.1,5.2,1.6,17.7,1.6,23.5s.5,18.2-1.6,23.5Z"/>
  </g>
</svg>