<?xml version="1.0" encoding="UTF-8"?>
<svg xmlns="http://www.w3.org/2000/svg" version="1.1" viewBox="0 0 128 128">
  <!-- Generator: Adobe Illustrator 29.5.1, SVG Export Plug-In . SVG Version: 2.1.0 Build 141)  -->
  <defs>
    <style>
      .st0 {
        fill: #1d1d1b;
      }

      .st1 {
        fill: #fff;
      }

      .st2 {
        display: none;
      }
    </style>
  </defs>
  <g id="Capa_1" class="st2">
    <circle class="st0" cx="63.6" cy="64" r="62.2"/>
    <path class="st1" d="M48.3,72.2v40.1h21.9v-40.1h16.3l3.4-18.4h-19.7v-6.5c0-9.8,3.8-13.5,13.7-13.5s5.5,0,7,.2v-16.7c-2.7-.7-9.3-1.5-13.1-1.5-20.2,0-29.5,9.5-29.5,30.1v7.9h-12.4v18.4h12.4Z"/>
  </g>
  <g id="Capa_2" class="st2">
    <circle class="st0" cx="63.6" cy="64" r="62.2"/>
    <path class="st1" d="M63.6,43.2c-11.5,0-20.8,9.3-20.8,20.8s9.3,20.8,20.8,20.8,20.8-9.3,20.8-20.8-9.3-20.8-20.8-20.8ZM63.6,77.5c-7.4,0-13.5-6.1-13.5-13.5s6.1-13.5,13.5-13.5,13.5,6.1,13.5,13.5-6.1,13.5-13.5,13.5h0ZM90.1,42.4c0,2.7-2.2,4.8-4.8,4.8s-4.8-2.2-4.8-4.8,2.2-4.8,4.8-4.8,4.8,2.2,4.8,4.8ZM103.8,47.3c-.3-6.5-1.8-12.2-6.5-17-4.7-4.7-10.5-6.2-17-6.5-6.7-.4-26.7-.4-33.4,0-6.5.3-12.2,1.8-17,6.5s-6.2,10.5-6.5,17c-.4,6.7-.4,26.7,0,33.4.3,6.5,1.8,12.2,6.5,17,4.8,4.7,10.5,6.2,17,6.5,6.7.4,26.7.4,33.4,0,6.5-.3,12.2-1.8,17-6.5,4.7-4.7,6.2-10.5,6.5-17,.4-6.7.4-26.7,0-33.4h0ZM95.2,87.9c-1.4,3.5-4.1,6.3-7.7,7.7-5.3,2.1-18,1.6-23.9,1.6s-18.6.5-23.9-1.6c-3.5-1.4-6.3-4.1-7.7-7.7-2.1-5.3-1.6-18-1.6-23.9s-.5-18.6,1.6-23.9c1.4-3.5,4.1-6.3,7.7-7.7,5.3-2.1,18-1.6,23.9-1.6s18.6-.5,23.9,1.6c3.5,1.4,6.3,4.1,7.7,7.7,2.1,5.3,1.6,18,1.6,23.9s.5,18.6-1.6,23.9Z"/>
  </g>
  <g id="Capa_3" class="st2">
    <circle class="st0" cx="63.6" cy="64" r="62.2"/>
    <path class="st1" d="M41.1,104.7h-16.9v-54.3h16.9v54.3ZM32.7,43c-5.4,0-9.8-4.5-9.8-9.9,0-5.4,4.4-9.8,9.8-9.8,5.4,0,9.8,4.4,9.8,9.8,0,5.4-4.4,9.9-9.8,9.9ZM104.3,104.7h-16.8v-26.4c0-6.3-.1-14.4-8.8-14.4s-10.1,6.8-10.1,13.9v26.9h-16.8v-54.3h16.2v7.4h.2c2.3-4.3,7.8-8.8,16-8.8,17.1,0,20.2,11.2,20.2,25.8v29.8h0Z"/>
  </g>
  <g id="Capa_4" class="st2">
    <circle class="st0" cx="63.6" cy="64" r="62.2"/>
    <path class="st1" d="M107.5,42.1c-1-3.9-4.1-7-8-8.1-7.1-1.9-35.5-1.9-35.5-1.9,0,0-28.4,0-35.5,1.9-3.9,1-7,4.1-8,8.1-1.9,7.1-1.9,22-1.9,22,0,0,0,14.9,1.9,22,1,3.9,4.1,6.9,8,8,7.1,1.9,35.5,1.9,35.5,1.9,0,0,28.4,0,35.5-1.9,3.9-1,7-4,8-8,1.9-7.1,1.9-22,1.9-22,0,0,0-14.9-1.9-22h0ZM54.7,77.6v-27l23.7,13.5-23.7,13.5h0Z"/>
  </g>
  <g id="Capa_5">
    <circle class="st0" cx="63.6" cy="64" r="62.2"/>
    <path class="st1" d="M102.8,55.9c-7.7,0-15.2-2.4-21.5-6.9v31.3c0,15.7-12.7,28.4-28.4,28.4-15.7,0-28.4-12.7-28.4-28.4,0-15.7,12.7-28.4,28.4-28.4,1.3,0,2.6,0,3.9.3v15.7c-6.9-2.2-14.2,1.7-16.4,8.5-2.2,6.9,1.7,14.2,8.5,16.4,6.9,2.2,14.2-1.7,16.4-8.5.4-1.3.6-2.6.6-3.9V19.2h15.4c0,1.3.1,2.6.3,3.9h0c1.1,5.8,4.5,10.8,9.4,14,3.5,2.3,7.6,3.5,11.7,3.5v15.3Z"/>
  </g>
</svg>